<svg width="40" height="38" viewBox="0 0 40 38" fill="none" xmlns="http://www.w3.org/2000/svg">
<path d="M38.1616 13.7176H29.1909L22.8848 1.55848C22.6587 1.12254 22.2764 0.800745 21.8083 0.652308C21.3401 0.50387 20.8423 0.546683 20.4063 0.772777C20.2548 0.85137 20.1191 0.948558 20 1.05973C19.8808 0.948636 19.7452 0.85137 19.5936 0.772777C19.1577 0.546683 18.6598 0.503948 18.1916 0.652308C17.7235 0.800667 17.3412 1.12254 17.1152 1.55848L10.4681 14.375C10.242 14.811 10.1992 15.3089 10.3477 15.777C10.3983 15.9368 10.4706 16.0857 10.5594 16.2226H1.83844C1.47086 16.2226 1.17188 15.9236 1.17188 15.5561C1.17188 15.1886 1.47094 14.8895 1.83844 14.8895H8.51852C8.84211 14.8895 9.10445 14.6272 9.10445 14.3036C9.10445 13.98 8.84211 13.7176 8.51852 13.7176H1.83844C0.824766 13.7176 0 14.5424 0 15.5561C0 16.3968 0.567344 17.1069 1.33914 17.325L4.73281 35.4243C4.95117 36.5893 5.97 37.4348 7.15531 37.4348H32.8448C34.0301 37.4348 35.0488 36.5893 35.2673 35.4243L38.6609 17.325C39.4327 17.1069 40 16.3968 40 15.5561C40 14.5423 39.1752 13.7176 38.1616 13.7176ZM20.9459 1.81317C21.1039 1.73121 21.2845 1.71567 21.4541 1.7695C21.6238 1.82325 21.7625 1.93996 21.8445 2.09801L28.4915 14.9147C28.5734 15.0727 28.589 15.2533 28.5352 15.4229C28.4814 15.5927 28.3647 15.7313 28.2066 15.8133C28.0486 15.8953 27.868 15.9108 27.6983 15.857C27.5285 15.8033 27.3899 15.6865 27.308 15.5285L20.661 2.71176C20.4918 2.38551 20.6196 1.98239 20.9459 1.81317ZM28.7484 17.3946L28.1939 23.1116H20.5859V17.3946H28.7484ZM20 3.98254L26.2678 16.0679C26.2955 16.1213 26.3256 16.1729 26.3579 16.2226H13.6421C13.6744 16.1729 13.7045 16.1213 13.7322 16.0679L14.3434 14.8896H23.2617C23.5853 14.8896 23.8477 14.6273 23.8477 14.3036C23.8477 13.98 23.5853 13.7177 23.2617 13.7177H14.9511L20 3.98254ZM11.5084 14.9146L18.1555 2.09793C18.2375 1.93989 18.3761 1.82317 18.5459 1.76942C18.6123 1.74832 18.6803 1.73793 18.748 1.73793C18.8534 1.73793 18.958 1.76325 19.0541 1.81309C19.3804 1.98239 19.5082 2.38543 19.339 2.71168L12.6919 15.5283C12.6099 15.6864 12.4713 15.8031 12.3016 15.8568C12.132 15.9106 11.9514 15.8951 11.7933 15.8131C11.6352 15.7311 11.5185 15.5925 11.4648 15.4228C11.4109 15.2532 11.4265 15.0727 11.5084 14.9146ZM2.54445 17.3946H10.0743L10.6287 23.1116H3.61641L2.54445 17.3946ZM3.83617 24.2834H10.7424L11.2969 30.0004H4.90805L3.83617 24.2834ZM7.15523 36.263C6.53352 36.263 5.99914 35.8195 5.88461 35.2084L5.12781 31.1722H11.4105L11.9042 36.263H7.15523ZM19.4141 36.263H13.0815L12.5878 31.1722H19.4141V36.263ZM19.4141 30.0004H12.4741L11.9197 24.2834H19.4141V30.0004ZM19.4141 23.1116H11.8061L11.2516 17.3946H19.4141V23.1116ZM26.9185 36.263H20.5859V31.1722H27.4122L26.9185 36.263ZM27.5259 30.0004H20.5859V24.2835H28.0803L27.5259 30.0004ZM34.1154 35.2084C34.0009 35.8195 33.4664 36.263 32.8447 36.263H28.0958L28.5895 31.1722H34.8722L34.1154 35.2084ZM35.092 30.0004H28.7032L29.2577 24.2835H36.1639L35.092 30.0004ZM36.3836 23.1115H29.3713L29.9258 17.3945H37.4555L36.3836 23.1115ZM38.1616 16.2227H38.152C38.1516 16.2227 38.1513 16.2227 38.1509 16.2227H29.4406C29.5294 16.0858 29.6016 15.9368 29.6523 15.7771C29.7448 15.4854 29.763 15.1822 29.7089 14.8896H38.1616C38.5291 14.8896 38.8281 15.1886 38.8281 15.5561C38.8281 15.9236 38.5291 16.2227 38.1616 16.2227Z" fill="#688800"/>
</svg>
