<svg width="76" height="155" viewBox="0 0 76 155" fill="none" xmlns="http://www.w3.org/2000/svg">
<path d="M25.2731 98.4262V78.7316H26.671V98.4262H25.2731ZM32.6194 36.9535L33.9066 37.5252L33.7388 37.9113L33.5532 38.2883L33.3519 38.6537L33.1349 39.0101L32.9057 39.3572L32.6641 39.6963L32.4114 40.0274L32.1497 40.3517L31.8802 40.669L31.6051 40.9807L31.3232 41.2866L31.037 41.5879L30.7484 41.8858L30.4577 42.1779L30.1669 42.4678L29.8761 42.7542L29.5876 43.0383L29.3024 43.3202L29.0206 43.6009L28.7444 43.8804L28.4749 44.1588L28.2132 44.4361L27.9604 44.7134L27.7178 44.9895L27.4874 45.2645L27.2682 45.5406L27.0624 45.8167L26.8723 46.0928L26.6979 46.3689L26.5391 46.645L26.3982 46.9223L26.2751 47.2018L24.9913 46.6221L25.1479 46.2681L25.3234 45.9232L25.5158 45.5864L25.7238 45.2576L25.9452 44.9368L26.179 44.6217L26.4239 44.3124L26.6788 44.0076L26.9417 43.7074L27.2123 43.4118L27.4885 43.1197L27.7692 42.8298L28.0544 42.5423L28.3418 42.2558L28.6314 41.9706L28.92 41.6864L29.2074 41.4023L29.4926 41.117L29.7755 40.8317L30.0528 40.5464L30.3257 40.2589L30.5907 39.9713L30.848 39.6803L31.0962 39.3881L31.3333 39.0937L31.5592 38.797L31.7728 38.4968L31.973 38.1943L32.1586 37.8896L32.3297 37.5802L32.4841 37.2686L32.6216 36.9512L32.6194 36.9535ZM49.4468 49.8014H25.8938V48.3361H49.4468L50.1458 49.0682L49.4468 49.8003V49.8014ZM49.4468 48.3361H50.1458V49.0682L49.4468 48.3361ZM48.7479 72.8427V49.0693H50.1458V72.8427L49.4468 73.5748L48.7479 72.8427ZM50.1458 72.8427V73.5748H49.4468L50.1458 72.8427ZM25.8938 72.1106H49.4468V73.5759H25.8938L25.1948 72.8438L25.8938 72.1117V72.1106ZM25.8938 73.5759H25.1948V72.8438L25.8938 73.5759ZM26.5927 49.0693V72.8427H25.1948V49.0693L25.8938 48.3372L26.5927 49.0693ZM25.1948 49.0693V48.3372H25.8938L25.1948 49.0693ZM22.361 109.16H52.3914V110.626H22.361L21.662 109.894L22.361 109.161V109.16ZM22.361 110.626H21.662V109.894L22.361 110.626ZM21.662 46.9085H23.06V48.8711V50.8349V52.7997V54.7646V56.7307V58.6978V60.665V62.6322V64.6005V66.5688V68.5383V70.5077V72.4772V74.4467V76.4161V78.3867V80.3573V82.328V84.2986V86.2692V88.2398V90.2104V92.181V94.1505V96.1199V98.0894V100.059V102.027V103.995V105.964V107.931V109.898H21.662V107.931V105.964V103.995V102.027V100.059V98.0894V96.1199V94.1505V92.181V90.2104V88.2398V86.2692V84.2986V82.328V80.3573V78.3867V76.4161V74.4467V72.4772V70.5077V68.5383V66.5688V64.6005V62.6322V60.665V58.6978V56.7307V54.7646V52.7997V50.8349V48.8711V46.9085ZM32.5176 31.4198V32.8851L33.2166 32.153L33.1808 32.7087L33.0813 33.2552L32.9225 33.7902L32.7133 34.3115L32.4583 34.8225L32.1631 35.3232L31.8332 35.8158L31.472 36.3028L31.0839 36.784L30.6724 37.2606L30.2407 37.7337L29.7934 38.2035L29.3326 38.6709L28.8629 39.1361L28.3888 39.5989L27.9112 40.0607L27.4371 40.5189L26.9685 40.9761L26.5089 41.4321L26.0627 41.8846L25.6332 42.3349L25.225 42.7829L24.8426 43.2274L24.4881 43.6673L24.1649 44.1027L23.8786 44.5312L23.6314 44.9528L23.4256 45.3653L23.2646 45.7663L23.1494 46.157L23.0801 46.535L23.0566 46.9051H21.6587L21.6934 46.3471L21.794 45.7995L21.9528 45.2633L22.1619 44.7397L22.4169 44.2276L22.7122 43.7246L23.0421 43.2308L23.4022 42.7439L23.7902 42.2616L24.2029 41.7838L24.6334 41.3106L25.0808 40.8397L25.5415 40.3712L26.0112 39.906L26.4854 39.4431L26.9618 38.9814L27.436 38.5231L27.9045 38.066L28.3642 37.6112L28.8104 37.1586L29.2398 36.7083L29.6469 36.2615L30.0305 35.8181L30.385 35.3782L30.7071 34.944L30.9933 34.5155L31.2405 34.095L31.4463 33.6837L31.6062 33.2838L31.7214 32.8954L31.7907 32.5185L31.8142 32.1507L32.5131 31.4186L32.5176 31.4198ZM31.8187 32.1519V31.4198H32.5176L31.8187 32.1519ZM42.5635 32.0889H41.1656L41.8646 32.821H41.2741L40.7418 32.8221L40.262 32.8233L39.8337 32.8244L39.4524 32.8256L39.1135 32.8278L38.8127 32.8301L38.5465 32.8324L38.3117 32.8347L38.1037 32.837L37.9202 32.8393L37.7547 32.8427L37.6038 32.845L37.4651 32.8485L37.3331 32.8508L37.2068 32.8542L37.077 32.8576L36.9451 32.8599L36.803 32.8634L36.6509 32.8656L36.4832 32.8691L36.2942 32.8714L36.0828 32.8737L35.8458 32.876L35.5774 32.8783L35.2754 32.8805L34.9343 32.8828L34.5496 32.884L34.1202 32.8851L33.6404 32.8863L33.107 32.8874H32.5154V31.4221H33.1059L33.6382 31.4209L34.1179 31.4198L34.5463 31.4186L34.9276 31.4175L35.2665 31.4152L35.5673 31.4129L35.8335 31.4106L36.0694 31.4083L36.2763 31.406L36.4597 31.4037L36.6252 31.4003L36.7751 31.398L36.9138 31.3946L37.0457 31.3923L37.1721 31.3888L37.3018 31.3854L37.4338 31.3831L37.5747 31.3797L37.7268 31.3774L37.8945 31.3739L38.0835 31.3717L38.2938 31.3694L38.5309 31.3671L38.7992 31.3648L39.1012 31.3625L39.4423 31.3602L39.8259 31.359L40.2553 31.3579L40.7351 31.3568L41.2685 31.3556H41.8601L42.5591 32.0877L42.5635 32.0889ZM41.8646 31.3568H42.5635V32.0889L41.8646 31.3568ZM53.0892 46.755H51.6913L51.6678 46.3953L51.5962 46.0252L51.4766 45.6425L51.3111 45.2461L51.0986 44.8382L50.8425 44.4201L50.5461 43.995L50.2117 43.5619L49.8438 43.1243L49.4468 42.682L49.0241 42.2364L48.579 41.7884L48.1171 41.337L47.6407 40.8833L47.1554 40.4273L46.6633 39.9702L46.169 39.5107L45.6769 39.0502L45.1905 38.5873L44.7141 38.1221L44.25 37.6547L43.8026 37.1827L43.3765 36.7083L42.9751 36.2294L42.6016 35.7459L42.2593 35.2556L41.954 34.7572L41.689 34.2485L41.4709 33.7284L41.3065 33.1956L41.2014 32.6491L41.1645 32.0923H42.5624L42.5859 32.452L42.6575 32.8221L42.7771 33.2048L42.9426 33.6012L43.1551 34.0091L43.4112 34.4272L43.7076 34.8523L44.042 35.2854L44.4099 35.723L44.8069 36.1653L45.2296 36.611L45.6747 37.0589L46.1366 37.5103L46.613 37.964L47.0983 38.42L47.5893 38.8772L48.0836 39.3366L48.5756 39.7972L49.0621 40.26L49.5385 40.7252L50.0026 41.1926L50.45 41.6646L50.876 42.139L51.2775 42.6179L51.651 43.1014L51.9932 43.5917L52.2985 44.0901L52.5636 44.5988L52.7817 45.1189L52.9461 45.6517L53.0512 46.1982L53.0881 46.755H53.0892ZM51.6913 109.894V46.755H53.0892V109.894L52.3902 110.626L51.6913 109.894ZM53.0892 109.894V110.626H52.3902L53.0892 109.894ZM33.2155 11.9428V32.1519H31.8176V11.9428L32.5165 11.2107L33.2155 11.9428ZM31.8176 11.9428V11.2107H32.5165L31.8176 11.9428ZM41.8635 12.6749H32.5154V11.2096H41.8635L42.5624 11.9417L41.8635 12.6738V12.6749ZM41.8635 11.2096H42.5624V11.9417L41.8635 11.2096ZM41.1645 32.0877V11.9417H42.5624V32.0877H41.1645ZM31.6073 10.2518L32.9504 11.3677L32.0826 12.5168L30.7395 11.4009L30.4744 10.828L31.6073 10.2518ZM30.7395 11.4009L30.4756 11.1821L30.4744 10.828L30.7395 11.4009ZM31.8668 8.41748L31.8723 10.8246L30.4744 10.828L30.4689 8.42092L30.773 7.81484L31.8668 8.41748ZM30.4689 8.42092L30.4677 8.03367L30.7719 7.81484L30.4677 8.42092H30.4689ZM32.9113 8.05315L31.5626 9.02356L30.773 7.81484L32.1217 6.84443L32.5165 6.71611L32.9113 8.05315ZM32.1217 6.84443L32.2995 6.71611H32.5165L32.1217 6.84443ZM41.8646 8.18147H32.5165V6.71611H41.8646L42.2593 6.84443L41.8646 8.18147ZM41.8646 6.71611H42.0815L42.2593 6.84443L41.8646 6.71611ZM42.8107 9.01783L41.4687 8.05315L42.2582 6.84443L43.6002 7.80911L43.9044 8.4129L42.8107 9.01669V9.01783ZM43.6002 7.80911L43.9044 8.02794V8.41405L43.6002 7.81026V7.80911ZM42.5065 10.8258V8.4129H43.9044V10.8258L43.6394 11.3997L42.5065 10.8258ZM43.9044 10.8258V11.1798L43.6394 11.3997L43.9044 10.8258ZM41.4307 11.3677L42.7727 10.2518L43.6405 11.3997L42.2985 12.5157L41.4307 11.3677ZM34.5507 0.73325V7.44707H33.1528V0.73325L33.8518 0.0011457L34.5507 0.73325ZM33.1528 0.73325V0.0011457H33.8518L33.1528 0.73325ZM40.5282 1.46535H33.8518V0H40.5282L41.2271 0.732104L40.5282 1.46421V1.46535ZM40.5282 0H41.2271V0.732104L40.5282 0ZM39.8292 7.44707V0.73325H41.2271V7.44707H39.8292Z" fill="#728536"/>
<path d="M16.9139 155C16.0328 155 14.9254 154.131 13.5919 152.391C12.2584 150.652 10.9305 148.559 9.6093 146.112C8.28702 143.666 7.21119 141.424 6.38069 139.383C5.80227 141.397 5.12256 143.882 4.34157 146.838C3.91394 148.512 3.29725 150.788 2.49151 153.666C1.83656 153.666 1.25813 153.476 0.755105 153.097C0.252077 152.717 0 152.253 0 151.704C0 151.312 0.176679 150.592 0.528911 149.546C2.21467 144.105 3.76202 139.416 5.17207 135.479C6.581 131.543 8.21725 127.378 10.0797 122.983C9.12315 123.139 8.29827 123.369 7.60619 123.669C6.9141 123.97 6.16575 124.342 5.36001 124.787C4.88174 125.074 4.58014 125.218 4.45411 125.218C4.27743 125.218 4.03885 125.087 3.73614 124.825C3.43455 124.564 3.28375 124.341 3.28375 124.158C6.5056 122.72 9.33697 122 11.7778 122C13.3387 122 14.8489 122.262 16.3085 122.785C17.768 123.308 18.9699 124.119 19.9141 125.217C20.8571 126.315 21.3297 127.689 21.3297 129.337C21.3297 131.664 20.4295 133.463 18.63 134.732C16.8306 136 14.8669 136.838 12.7411 137.243C10.6142 137.648 8.7833 137.851 7.24721 137.851C7.49928 138.322 7.7311 138.754 7.94604 139.146C8.15986 139.539 8.35454 139.89 8.5301 140.205C9.61268 142.219 10.5625 143.88 11.3817 145.187C12.1987 146.495 13.2183 147.875 14.4393 149.326C15.6591 150.777 17.1266 152.236 18.8382 153.701C18.6874 154.041 18.4162 154.343 18.0257 154.604C17.6364 154.865 17.2639 154.997 16.9128 154.997L16.9139 155ZM6.98388 137.226C8.97236 137.095 10.8607 136.702 12.6466 136.048C14.4336 135.395 15.9056 134.44 17.0647 133.184C18.2227 131.927 18.8011 130.372 18.8011 128.515C18.8011 126.527 18.1529 125.081 16.8554 124.18C15.5601 123.277 13.9554 122.826 12.0423 122.826C10.5321 125.966 8.84632 130.765 6.98275 137.226H6.98388ZM22.6903 150.645C22.338 150.645 22.0488 150.553 21.8215 150.371C21.5953 150.188 21.4817 149.926 21.4817 149.586C21.4817 149.168 21.7202 148.795 22.1985 148.467C22.6768 148.14 23.1674 147.977 23.6705 147.977C24.3243 147.977 24.6518 148.291 24.6518 148.918C24.6518 149.311 24.4447 149.697 24.0294 150.076C23.6142 150.455 23.1674 150.645 22.6892 150.645H22.6903ZM31.8652 151.507C30.8333 151.507 30.0782 151.181 29.5988 150.527C29.1205 149.874 28.8819 149.01 28.8819 147.937C28.8819 146.864 29.0957 145.74 29.5245 144.563C29.9521 143.386 30.5058 142.405 31.1855 141.62C31.8652 140.835 32.5449 140.442 33.2246 140.442C33.4508 140.442 33.7153 140.509 34.0169 140.639C33.7141 140.9 33.3507 141.475 32.9219 142.365C32.4943 143.255 32.1218 144.202 31.8078 145.209C31.4927 146.216 31.3363 147.033 31.3363 147.662C31.3363 149.153 31.7887 149.899 32.6957 149.899C33.2246 149.899 33.8537 149.611 34.584 149.035C35.3144 148.459 36.0312 147.701 36.7357 146.759C36.0312 146.157 35.4832 145.373 35.0938 144.406C34.7033 143.438 34.5086 142.43 34.5086 141.385C34.5086 140.024 34.8429 138.86 35.5091 137.892C36.1764 136.924 37.0767 136.44 38.2088 136.44C39.1653 136.44 39.8382 136.707 40.2287 137.244C40.6192 137.78 40.8139 138.519 40.8139 139.461C40.8139 140.455 40.581 141.573 40.1151 142.815C39.6492 144.057 39.0393 145.267 38.2841 146.444C38.7377 146.705 39.2159 146.837 39.719 146.837C40.4493 146.837 41.2044 146.608 41.9854 146.15C42.7653 145.693 43.3572 144.98 43.7601 144.013L44.2125 144.404C43.7342 145.556 43.0545 146.405 42.1733 146.955C41.2922 147.504 40.3863 147.778 39.4545 147.778C38.7748 147.778 38.1705 147.647 37.6416 147.385C36.7357 148.615 35.7735 149.61 34.7539 150.368C33.7344 151.127 32.7722 151.506 31.8663 151.506L31.8652 151.507ZM37.4143 145.74C38.0681 144.72 38.597 143.68 39.001 142.621C39.4027 141.561 39.6053 140.587 39.6053 139.697C39.6053 138.965 39.4984 138.415 39.2835 138.05C39.0696 137.684 38.7996 137.5 38.4721 137.5C38.1199 137.5 37.7609 137.677 37.3963 138.03C37.0305 138.383 36.7289 138.867 36.4904 139.481C36.2507 140.096 36.1314 140.77 36.1314 141.502C36.1314 142.314 36.2383 143.092 36.4521 143.837C36.6659 144.582 36.9878 145.217 37.4154 145.74H37.4143ZM46.1739 151.43C45.142 151.43 44.3801 151.063 43.8895 150.332C43.3977 149.599 43.1535 148.618 43.1535 147.389C43.1535 145.035 43.9334 141.837 45.4953 137.796C47.0551 133.755 48.7982 130.113 50.7248 126.869C52.6503 123.626 54.0401 122.003 54.8965 122.003C55.2487 122.003 55.5447 122.323 55.7832 122.964C56.0218 123.605 56.1422 124.253 56.1422 124.907C56.1422 126.11 55.6707 127.882 54.7265 130.223C53.7824 132.564 52.5434 134.938 51.0073 137.344C49.4712 139.751 47.8349 141.699 46.0997 143.19C45.7722 144.707 45.6079 146.028 45.6079 147.153C45.6079 149.168 46.1616 150.174 47.2689 150.174C48.2007 150.174 49.1505 149.561 50.1194 148.331C51.0883 147.102 51.9503 145.623 52.7054 143.897L53.2726 144.211C51.1074 149.024 48.742 151.431 46.1751 151.431L46.1739 151.43ZM46.4384 141.857C47.8226 140.417 49.1752 138.606 50.4975 136.422C51.8186 134.237 52.8945 132.145 53.725 130.145C54.5555 128.143 54.9707 126.699 54.9707 125.809C54.9707 125.39 54.883 125.182 54.7063 125.182C54.354 125.182 53.6304 126.078 52.5355 127.869C51.4405 129.66 50.3141 131.852 49.1561 134.442C47.9981 137.031 47.0922 139.503 46.4373 141.857H46.4384ZM59.1998 133.303C58.7474 133.303 58.376 133.192 58.0857 132.969C57.7965 132.748 57.6513 132.426 57.6513 132.008C57.6513 131.485 57.954 131.013 58.5572 130.596C59.1615 130.178 59.7782 129.969 60.4073 129.969C61.2378 129.969 61.653 130.375 61.653 131.186C61.653 131.683 61.3953 132.16 60.8799 132.617C60.3645 133.075 59.8041 133.304 59.1998 133.304V133.303ZM54.6691 151.273C53.7374 151.273 53.0205 150.966 52.5175 150.351C52.0133 149.736 51.7624 148.946 51.7624 147.977C51.7624 146.957 52.046 145.545 52.6109 143.74C53.1769 141.934 53.8825 140.352 54.7254 138.991C55.5683 137.631 56.3932 136.951 57.1978 136.951C57.4251 136.951 57.6198 137.028 57.783 137.186C57.9461 137.343 58.0294 137.553 58.0294 137.813C58.0294 138.18 57.6265 139.056 56.8208 140.442C55.9903 141.882 55.3297 143.169 54.8379 144.307C54.3473 145.445 54.102 146.524 54.102 147.544C54.102 148.459 54.2471 149.081 54.5363 149.409C54.8256 149.735 55.2982 149.899 55.952 149.899C57.9158 149.899 59.8536 147.897 61.7667 143.896L62.1065 144.288C61.4021 146.486 60.3645 148.199 58.9916 149.428C57.6198 150.657 56.1793 151.272 54.6691 151.272V151.273ZM63.655 151.509C62.6231 151.509 61.868 151.182 61.3886 150.528C60.9103 149.875 60.6717 149.011 60.6717 147.938C60.6717 146.865 60.8855 145.741 61.3143 144.564C61.7419 143.388 62.2956 142.406 62.9753 141.621C63.655 140.836 64.3347 140.443 65.0144 140.443C65.2406 140.443 65.5051 140.51 65.8067 140.64C65.5039 140.902 65.1404 141.476 64.7117 142.366C64.2841 143.256 63.9127 144.203 63.5976 145.21C63.2836 146.218 63.1261 147.034 63.1261 147.663C63.1261 149.154 63.5796 149.9 64.4855 149.9C65.0144 149.9 65.6435 149.612 66.3727 149.036C67.103 148.46 67.8199 147.702 68.5244 146.76C67.8199 146.158 67.273 145.374 66.8825 144.407C66.4931 143.439 66.2973 142.431 66.2973 141.386C66.2973 140.025 66.6315 138.861 67.2977 137.893C67.9651 136.926 68.8642 136.441 69.9974 136.441C70.954 136.441 71.6269 136.709 72.0174 137.246C72.4068 137.781 72.6026 138.521 72.6026 139.462C72.6026 140.456 72.3697 141.574 71.9038 142.816C71.4379 144.058 70.8279 145.268 70.0728 146.445C70.5252 146.707 71.0035 146.838 71.5076 146.838C72.238 146.838 72.9931 146.609 73.7729 146.151C74.5528 145.694 75.1447 144.981 75.5476 144.014L76 144.406C75.5217 145.557 74.842 146.406 73.9609 146.956C73.0797 147.505 72.1738 147.779 71.2421 147.779C70.5623 147.779 69.958 147.648 69.4291 147.386C68.5232 148.616 67.5611 149.611 66.5415 150.369C65.5219 151.128 64.5598 151.507 63.6539 151.507L63.655 151.509ZM69.2052 145.741C69.859 144.721 70.3879 143.681 70.7908 142.622C71.1925 141.562 71.3951 140.588 71.3951 139.698C71.3951 138.966 71.2882 138.417 71.0744 138.051C70.8606 137.685 70.5905 137.501 70.263 137.501C69.9108 137.501 69.5518 137.679 69.1872 138.032C68.8226 138.385 68.5199 138.868 68.2813 139.483C68.0416 140.097 67.9223 140.771 67.9223 141.504C67.9223 142.315 68.0292 143.093 68.243 143.838C68.4568 144.583 68.7787 145.218 69.2063 145.741H69.2052Z" fill="#728536"/>
</svg>
